<svg xmlns="http://www.w3.org/2000/svg"  viewBox="0 0 64 64" width="64px" height="64px"><path d="M46.52,35.5c-3.765,3.706-11.5,2.5-11.5,2.5s-0.765-7.293,3-11c3.765-3.707,11-3,11-3S50.284,31.793,46.52,35.5z M35.52,48	c-0.608,0-1.5,0.076-1.5-1v-5c0,0,3,3,3,4.5S36.331,48,35.52,48z M31.02,46.967c0,1.076-0.893,1.033-1.5,1.033	c-0.729,0-1.5,0-1.5-1.611c0-1.389,3-4.389,3-4.389V46.967z M18.509,35.5C14.745,31.792,16.02,24,16.02,24s7.235-0.707,11,3	c3.764,3.826,3,11,3,11S22.273,39.206,18.509,35.5z M32.52,5C16.314,5,8.026,14.239,8.026,30.348c0,9.291,6.468,14.18,10.483,16.807	c0.885,0.579,1.656,1.083,2.043,1.438c0.359,0.505,0.704,1.435,1.067,2.418C22.943,54.591,24.944,60,32.52,60	c7.546,0,9.636-5.567,10.884-8.893c0.382-1.017,0.742-1.978,1.046-2.36c0.379-0.392,1.24-0.963,2.237-1.622	c3.961-2.622,10.339-7.503,10.339-16.776C57.026,14.239,48.725,5,32.52,5z"/></svg>